<?xml version="1.0" encoding="iso-8859-1"?>
<!-- Generator: Adobe Illustrator 16.0.0, SVG Export Plug-In . SVG Version: 6.00 Build 0)  -->
<!DOCTYPE svg PUBLIC "-//W3C//DTD SVG 1.1//EN" "http://www.w3.org/Graphics/SVG/1.1/DTD/svg11.dtd">
<svg version="1.1" id="Capa_1" xmlns="http://www.w3.org/2000/svg" xmlns:xlink="http://www.w3.org/1999/xlink" x="0px" y="0px"
	 width="470.047px" height="470.047px" viewBox="0 0 470.047 470.047" style="enable-background:new 0 0 470.047 470.047;"
	 xml:space="preserve">
<g>
	<path d="M420.624,226.102c-22.399-22.4-48.199-37.5-73.3-44.6c-0.5,9-1.6,18.3-3.6,27.7c-1,4.8-2.2,9.7-3.601,14.5
		c14,16.9,20.2,34.4,25.301,49.8c5.5,16.899,9.8,31.5,19.8,44.5c2.8,3.699,6.3,7.699,10.3,11.699c10.5,10.5,24.3,21.2,36.6,29.2
		c12,8.101,23.9,13.5,26.301,13.601c0.3,0.1,0.6,0.199,0.8,0.299C482.624,334.902,467.324,272.801,420.624,226.102z"/>
	<path d="M440.925,392.902c-6.801-3.101-14.101-7.399-22.4-12.7c-13.7-8.9-28.5-20.4-40.9-32.699c-4.699-4.701-9-9.5-12.699-14.4
		c-13.5-17.9-18.5-36-23.801-52.2c-3.3-10-6.6-19.3-11.6-28.2c-12.9,29.2-32.4,57.4-57,82c-0.9,0.9-1.8,1.7-2.7,2.6
		c5.4,7.301,11.6,14.5,18.4,21.301C337.524,407.801,403.824,422.102,440.925,392.902z"/>
	<path d="M15.824,346.902c0.4-0.101,0.8-0.399,1.2-0.399c3.4-0.201,20.7-8.101,38.1-19.801c17.9-11.699,37.8-27.199,53.1-42.5
		c5.8-5.8,10.9-11.6,15-16.9c14.4-18.899,20.7-40.099,28.7-64.699c8-24.3,17.9-52.1,42.1-78.6c1-1.1,2.2-2.4,3.5-3.8
		c19.5-19.4,41.2-26.6,60.2-33.9c8.199-3.2,16.1-6.4,23.899-10.3c-16.5-9.3-36-13.9-56.899-13.9c-49.1,0-106.4,25-153.1,71.7
		C3.824,201.702-18.275,291.801,15.824,346.902z"/>
	<path d="M321.925,241.301c3.699-9.199,6.699-18.299,9-27.399c3-11.9,4.699-23.7,5.1-35.1c1-29.6-6.8-56.5-24.1-76.9
		c-14.7,9.1-28.9,14.8-41.2,19.5c-20.101,7.5-34.8,13.1-46.7,25.1c-0.6,0.6-1.3,1.4-2.2,2.4c-18.5,20.3-26.3,41.1-34.1,64.8
		c-7.7,23.5-14.9,49.9-34.6,75.8c-5.4,7.1-11.7,14.1-18.5,20.899c-17.9,17.899-39.5,34.601-59.4,47.5c-12,7.7-22.7,13.899-32.5,18.5
		c18.7,14.7,42.5,21.8,68.7,21.8c48.7,0,105.4-24.6,151.9-70.6c0.4-0.4,0.8-0.801,1.2-1.1
		C290.624,300.402,309.925,270.801,321.925,241.301z"/>
</g>
<g>
</g>
<g>
</g>
<g>
</g>
<g>
</g>
<g>
</g>
<g>
</g>
<g>
</g>
<g>
</g>
<g>
</g>
<g>
</g>
<g>
</g>
<g>
</g>
<g>
</g>
<g>
</g>
<g>
</g>
</svg>
